<svg xmlns="http://www.w3.org/2000/svg" fill="#000000" height="800" width="800" viewBox="0 0 58.593 58.593" xmlns:v="https://vecta.io/nano"><path d="M58.452 19.188l-6.14-10.339a1.08 1.08 0 0 0-.276-.293l-.051-.037c-.018-.012-.033-.027-.053-.038L41.224 2.63a1 1 0 0 0-1.131.119L5.83 32.163c-.007.006-.012.015-.019.021-.013.012-.023.026-.035.039a1.01 1.01 0 0 0-.182.255c-.007.013-.019.021-.025.034L.088 44.737a1 1 0 0 0 .447 1.294l18.931 9.94c.015.008.032.011.048.018s.023.016.037.022.029.003.043.008a1.01 1.01 0 0 0 .337.066c.111 0 .221-.025.327-.062.032-.011.06-.026.091-.041.038-.018.079-.029.115-.051s.071-.059.107-.089c.014-.012.031-.016.045-.028l37.662-35.387a1 1 0 0 0 .174-1.239zM40.871 4.716l8.867 4.846-30.629 27.697L8.35 32.636l32.521-27.92zM2.297 44.698L6.991 34.23l11.337 4.872.538 14.296-16.569-8.7zm18.551 8.154l-.527-13.992 16.546-14.962L51.219 10.92l5.105 8.598-35.476 33.334z"/></svg>