<svg xmlns="http://www.w3.org/2000/svg" fill="#000000" width="800" height="800" viewBox="0 0 256 256" xmlns:v="https://vecta.io/nano"><path d="M211.3 86.9l-40.5 15.7 7.5-47.8L120.6 8 62.9 54.7l13.3 84.4-35.5-13.9-27.8 42.1 40 80.6h133.9l29.6-59.8 26.7-52.7-31.8-48.5zm-7.3 17.2l-.3 21.9-17.6-6.5 17.9-15.4zM81.1 238l-20.2-83-14.8-17.2 31.9 13L91.8 238H81.1zM77 56.1l28.8-23.8-10.5 25L77 56.1zM140.7 238l7.1-71.3 6.3-20.1-27.1 15.7V238h-11.3l-9.6-178.9 14.6-38.2 47.2 37.9-13.8 87.8 21 23.2L153 238h-12.3zm39.2 0h-8.4l42.9-107.9-.5-21 17.7 27L179.9 238z"/></svg>