<svg xmlns="http://www.w3.org/2000/svg" width="100" height="100" stroke="#000" stroke-linecap="round" stroke-linejoin="miter" fill="#000" fill-rule="nonzero" stroke-width=".008"><path d="M72.8332-.5C62.3943-.5 53.758 7.6055 52.9037 17.8334H-.5V99.5h73.3334c11 0 20-9 20-20v-60c-.0002-11-9.0002-20-20.0002-20zm-70 34.2625l20.4729-12.5957h11.698L2.8332 39.9336v-6.1711zm50 20.2676l-6.0799-1.5197 6.0799-3.4741v4.9938zm0-8.8328L42.0797 51.342l-8.7623-2.1904 19.516-11.7133v7.759zm0-11.6463L28.7445 48.0086l-8.7863-2.1963 32.875-20.0191v7.7578zm-2.6846 23.2437l-9.6939 5.7616L2.8332 51.5834v-6.6162l47.3154 11.8275zM14.7684 77.8229L2.8332 73.3473v-8.252l21.8567 6.8307-9.9215 5.8969zm-11.9352-16.22v-6.5472l33.7026 9.8299-8.2407 4.8978.0635-.2031-25.5254-7.9774zm0 15.3043l8.2627 3.0985-8.2627 4.9109v-8.0094zm0 11.8868l50-29.7174v7.8123l-50 29.0058V88.794zm50-18.0514v7.7941L22.3865 96.1666H9.0074l43.8258-25.424zm0-48.8522l-37.4187 22.786-9.8676-2.4666 36.0728-21.0432h11.2137v.7238zm-35.8883-.7238l-14.1117 8.682v-8.682h14.1117zm12.0938 75l23.9896-13.8908c.8117 5.7801 4.1174 10.7875 8.786 13.8908H29.0387zm43.7945 0c-9.1666 0-16.6666-7.5-16.6666-16.6666s7.5-16.6666 16.6666-16.6666 16.6666 7.5 16.6666 16.6666S82 96.1666 72.8332 96.1666zm0-36.6666c-6.9361 0-13.076 3.5791-16.6666 8.9811V19.5c0-9.1666 7.5-16.6666 16.6666-16.6666s16.6666 7.5 16.6666 16.6666v48.9811C85.9092 63.0791 79.7693 59.5 72.8332 59.5zm0 8.3334c-6.5 0-11.6666 5.1666-11.6666 11.6666s5.1666 11.6666 11.6666 11.6666S84.4998 86 84.4998 79.5s-5.1666-11.6666-11.6666-11.6666zm0 20c-4.6666 0-8.3334-3.6666-8.3334-8.3334s3.6666-8.3334 8.3334-8.3334 8.3334 3.6668 8.3334 8.3334-3.6666 8.3334-8.3334 8.3334z"/></svg>