<svg xmlns="http://www.w3.org/2000/svg" fill="#000000" height="800" width="800" viewBox="0 0 256 256" xmlns:v="https://vecta.io/nano"><path d="M214.1 101.3V55.2h-72.8L52.1 90.6v35l-47 22.7v55.6h182.5l63.4-53.2v-49.2h-36.9zm-81-2v39h-8.4c0-1.1-.1-2.3-.2-3.4-1-13.5-6.3-25.5-15-35.6h23.6zm-72.8 0h37.9c10.8 9.4 16.9 21.9 18 36.3.1.9.1 1.8.1 2.7h-17v-1.4c-.8-9.9-5.3-19-12.9-25.4-7.4-6.3-16.4-9.5-25.9-9v-3.1h-.2zm0 11.2c7.7-.5 14.8 2.1 20.6 7.1a28.32 28.32 0 0 1 10 19.9v.7h-9.3c-.4-5.2-3-9.9-6.9-13.3a19.38 19.38 0 0 0-14.2-4.6h-.2v-9.8h0zm0 18c.4-.1.5-.1.8-.1 3.1-.2 5.9.7 8.3 2.7 2.2 1.8 3.5 4.3 3.9 7.2h-13v-9.8zm-47.1 67.1v-9.3c.6-.1 1.2-.3 1.8-.3a11.57 11.57 0 0 1 8.3 2.7c2.2 1.8 3.6 4.1 3.9 7h-14zm22.5 0c-.4-5.2-3.1-9.7-7.1-13.1a19.38 19.38 0 0 0-14.2-4.6c-.4 0-.8.1-1.2.2v-9.5c.1 0 .3-.1.5-.1 16-1.2 30 10.8 31.3 26.8v.5c0-.2-9.3-.2-9.3-.2zm17.5 0c0-.5 0-.7-.1-1.1-1.6-20.4-19.5-35.9-39.9-34.4v-3.4h38.5c10.8 9.4 17.3 22.1 18.5 36.5.1.9.1 1.6.1 2.5H53.2zm25.2-3.2c-1-13.5-6.3-25.8-15-35.8H86v39h-7.4c-.1-1.1-.1-2-.2-3.2zm28.1 3.2v-9.4c.5-.1.7-.2 1.3-.2a11.57 11.57 0 0 1 8.3 2.7c2.2 1.8 3.4 4.1 3.8 7l-13.4-.1h0zm21.5 0c-.4-5.2-2.7-9.7-6.7-13.1a19.38 19.38 0 0 0-14.2-4.6h-.7V168c16-1.2 29.9 11.2 31.2 27.2v.5c.1-.1-9.6-.1-9.6-.1zm17.9 0c0-.5 0-.7-.1-1.1-1.5-20.4-19.1-36.1-39.4-34.7v-3.1h37.9c10.8 9.4 17.4 22.1 18.6 36.5.1.9-.1 1.6-.1 2.5h-16.9zm33.3 0H171c0-1.1.1-2.1 0-3.2-1-13.5-6.7-25.8-15.4-35.8h23.6v39z"/></svg>